<svg xmlns="http://www.w3.org/2000/svg" width="425" height="178" fill="none" viewBox="0 0 425 178">
  <path fill="#fff" d="M120.53 38.8L77.314 141H43.442L.226 38.8H37.31l24.382 59.714L86.658 38.8h33.872z"/>
  <path fill="#000" d="M81.662 80.8V127h-6.6v-20.592H48.53V127h-6.6V80.8h6.6v19.866h26.532V80.8h6.6z"/>
  <path fill="#fff" d="M112.585 91.69c4.84 0 8.536 1.188 11.088 3.564 2.596 2.376 3.894 5.918 3.894 10.626V127h-6.006v-4.62c-1.056 1.628-2.574 2.882-4.554 3.762-1.936.836-4.246 1.254-6.93 1.254-3.916 0-7.062-.946-9.438-2.838-2.332-1.892-3.498-4.378-3.498-7.458s1.121-5.544 3.366-7.392c2.244-1.892 5.808-2.838 10.692-2.838h10.032v-1.254c0-2.728-.792-4.818-2.376-6.27-1.584-1.452-3.916-2.178-6.996-2.178a18 18 0 00-6.072 1.056c-1.98.66-3.652 1.562-5.016 2.706l-2.64-4.752c1.803-1.452 3.96-2.552 6.468-3.3 2.508-.792 5.17-1.188 7.986-1.188zm-1.452 30.822c2.42 0 4.51-.528 6.27-1.584 1.76-1.1 3.036-2.64 3.828-4.62v-4.884h-9.768c-5.368 0-8.052 1.804-8.052 5.412 0 1.76.682 3.146 2.046 4.158 1.364 1.012 3.256 1.518 5.676 1.518zM163.25 91.69c4.444 0 7.964 1.298 10.56 3.894 2.64 2.552 3.96 6.314 3.96 11.286V127h-6.336v-19.404c0-3.388-.814-5.94-2.442-7.656-1.628-1.716-3.96-2.574-6.996-2.574-3.432 0-6.138 1.012-8.118 3.036-1.98 1.98-2.97 4.84-2.97 8.58V127h-6.336V92.02h6.072v5.28c1.276-1.804 2.992-3.19 5.148-4.158 2.2-.968 4.686-1.452 7.458-1.452zm64.719-13.662V127h-6.072v-5.544a13.72 13.72 0 01-5.346 4.422c-2.156 1.012-4.532 1.518-7.128 1.518-3.388 0-6.424-.748-9.108-2.244-2.684-1.496-4.796-3.586-6.336-6.27-1.496-2.728-2.244-5.852-2.244-9.372 0-3.52.748-6.622 2.244-9.306 1.54-2.684 3.652-4.774 6.336-6.27 2.684-1.496 5.72-2.244 9.108-2.244 2.508 0 4.818.484 6.93 1.452a13.18 13.18 0 015.28 4.158V78.028h6.336zm-18.018 43.824c2.2 0 4.202-.506 6.006-1.518a11.168 11.168 0 004.224-4.356c1.012-1.892 1.518-4.048 1.518-6.468s-.506-4.554-1.518-6.402c-1.012-1.892-2.42-3.344-4.224-4.356-1.804-1.012-3.806-1.518-6.006-1.518-2.244 0-4.268.506-6.072 1.518-1.76 1.012-3.168 2.464-4.224 4.356-1.012 1.848-1.518 3.982-1.518 6.402s.506 4.576 1.518 6.468c1.056 1.848 2.464 3.3 4.224 4.356 1.804 1.012 3.828 1.518 6.072 1.518zm53.832-30.162c3.388 0 6.424.748 9.108 2.244a15.915 15.915 0 016.27 6.27c1.54 2.684 2.31 5.786 2.31 9.306 0 3.52-.77 6.644-2.31 9.372a15.915 15.915 0 01-6.27 6.27c-2.684 1.496-5.72 2.244-9.108 2.244-2.596 0-4.972-.506-7.128-1.518a13.72 13.72 0 01-5.346-4.422V127h-6.072V78.028h6.336V97.3a13.18 13.18 0 015.28-4.158c2.112-.968 4.422-1.452 6.93-1.452zm-.528 30.162c2.244 0 4.246-.506 6.006-1.518a11.168 11.168 0 004.224-4.356c1.056-1.892 1.584-4.048 1.584-6.468s-.528-4.554-1.584-6.402c-1.012-1.892-2.42-3.344-4.224-4.356-1.76-1.012-3.762-1.518-6.006-1.518-2.2 0-4.202.506-6.006 1.518-1.804 1.012-3.212 2.464-4.224 4.356-1.012 1.848-1.518 3.982-1.518 6.402s.506 4.576 1.518 6.468a11.168 11.168 0 004.224 4.356c1.804 1.012 3.806 1.518 6.006 1.518zm47.233 5.544c-3.476 0-6.6-.77-9.372-2.31-2.772-1.54-4.95-3.652-6.534-6.336-1.54-2.728-2.31-5.808-2.31-9.24 0-3.432.77-6.49 2.31-9.174 1.584-2.728 3.762-4.84 6.534-6.336 2.772-1.54 5.896-2.31 9.372-2.31s6.578.77 9.306 2.31c2.772 1.496 4.928 3.608 6.468 6.336 1.584 2.684 2.376 5.742 2.376 9.174 0 3.432-.792 6.512-2.376 9.24-1.54 2.684-3.696 4.796-6.468 6.336-2.728 1.54-5.83 2.31-9.306 2.31zm0-5.544c2.244 0 4.246-.506 6.006-1.518a11.168 11.168 0 004.224-4.356c1.012-1.892 1.518-4.048 1.518-6.468s-.506-4.554-1.518-6.402c-1.012-1.892-2.42-3.344-4.224-4.356-1.76-1.012-3.762-1.518-6.006-1.518s-4.268.506-6.072 1.518c-1.76 1.012-3.168 2.464-4.224 4.356-1.012 1.848-1.518 3.982-1.518 6.402s.506 4.576 1.518 6.468c1.056 1.848 2.464 3.3 4.224 4.356 1.804 1.012 3.828 1.518 6.072 1.518zm47.174 5.544c-3.476 0-6.6-.77-9.372-2.31-2.772-1.54-4.95-3.652-6.534-6.336-1.54-2.728-2.31-5.808-2.31-9.24 0-3.432.77-6.49 2.31-9.174 1.584-2.728 3.762-4.84 6.534-6.336 2.772-1.54 5.896-2.31 9.372-2.31s6.578.77 9.306 2.31c2.772 1.496 4.928 3.608 6.468 6.336 1.584 2.684 2.376 5.742 2.376 9.174 0 3.432-.792 6.512-2.376 9.24-1.54 2.684-3.696 4.796-6.468 6.336-2.728 1.54-5.83 2.31-9.306 2.31zm0-5.544c2.244 0 4.246-.506 6.006-1.518a11.168 11.168 0 004.224-4.356c1.012-1.892 1.518-4.048 1.518-6.468s-.506-4.554-1.518-6.402c-1.012-1.892-2.42-3.344-4.224-4.356-1.76-1.012-3.762-1.518-6.006-1.518s-4.268.506-6.072 1.518c-1.76 1.012-3.168 2.464-4.224 4.356-1.012 1.848-1.518 3.982-1.518 6.402s.506 4.576 1.518 6.468c1.056 1.848 2.464 3.3 4.224 4.356 1.804 1.012 3.828 1.518 6.072 1.518zm45.789-11.154l-7.26 6.732V127h-6.336V78.028h6.336v31.416l19.074-17.424h7.656l-14.718 14.454L424.373 127h-7.788l-13.134-16.302zM269.536 137.072v9.568h11.936v1.472h-11.936V158h-1.632v-22.4h14.976v1.472h-13.344zm19.267 7.872c.512-1.216 1.312-2.144 2.4-2.784 1.088-.661 2.411-.992 3.968-.992v1.568l-.384-.032c-1.856 0-3.307.587-4.352 1.76-1.045 1.152-1.568 2.763-1.568 4.832V158h-1.6v-16.704h1.536v3.648zm17.148 13.184c-1.578 0-3.008-.363-4.288-1.088a7.91 7.91 0 01-2.976-3.008c-.725-1.301-1.088-2.763-1.088-4.384 0-1.621.363-3.072 1.088-4.352.726-1.301 1.718-2.315 2.976-3.04 1.28-.725 2.71-1.088 4.288-1.088 1.579 0 2.998.363 4.256 1.088a7.774 7.774 0 013.008 3.04c.726 1.28 1.088 2.731 1.088 4.352 0 1.621-.362 3.083-1.088 4.384a7.832 7.832 0 01-3.008 3.008c-1.258.725-2.677 1.088-4.256 1.088zm0-1.44c1.28 0 2.422-.299 3.424-.896a6.283 6.283 0 002.4-2.496c.598-1.067.896-2.283.896-3.648 0-1.365-.298-2.581-.896-3.648a6.283 6.283 0 00-2.4-2.496c-1.002-.597-2.144-.896-3.424-.896-1.28 0-2.432.299-3.456.896-1.002.597-1.802 1.429-2.4 2.496-.576 1.067-.864 2.283-.864 3.648 0 1.365.288 2.581.864 3.648.598 1.067 1.398 1.899 2.4 2.496 1.024.597 2.176.896 3.456.896zm21.476-15.52c2.091 0 3.744.608 4.96 1.824 1.216 1.216 1.824 2.965 1.824 5.248V158h-1.6v-9.632c0-1.877-.48-3.307-1.44-4.288-.939-.981-2.261-1.472-3.968-1.472-1.963 0-3.509.587-4.64 1.76-1.131 1.173-1.696 2.752-1.696 4.736V158h-1.6v-16.704h1.536v3.616a6.378 6.378 0 012.56-2.752c1.152-.661 2.507-.992 4.064-.992zm21.659 15.776c-.405.384-.917.683-1.536.896a6.127 6.127 0 01-1.888.288c-1.45 0-2.57-.395-3.36-1.184-.789-.811-1.184-1.931-1.184-3.36v-10.912h-3.072v-1.376h3.072v-3.648h1.6v3.648h5.312v1.376h-5.312v10.752c0 1.088.256 1.92.768 2.496.534.555 1.312.832 2.336.832 1.046 0 1.91-.309 2.592-.928l.672 1.12zm2.742-8.256h8.224v1.44h-8.224v-1.44zm28.02 1.344H365.48c.042 1.301.373 2.464.992 3.488a6.404 6.404 0 002.496 2.336c1.066.555 2.261.832 3.584.832 1.088 0 2.09-.192 3.008-.576a6.007 6.007 0 002.336-1.76l.928 1.056c-.726.875-1.643 1.547-2.752 2.016-1.088.469-2.272.704-3.552.704-1.664 0-3.147-.363-4.448-1.088a7.991 7.991 0 01-3.072-3.008c-.726-1.28-1.088-2.741-1.088-4.384 0-1.621.341-3.072 1.024-4.352.704-1.301 1.664-2.315 2.88-3.04 1.216-.725 2.581-1.088 4.096-1.088 1.514 0 2.869.363 4.064 1.088 1.216.704 2.165 1.696 2.848 2.976.704 1.28 1.056 2.731 1.056 4.352l-.032.448zm-7.936-7.456c-1.174 0-2.23.267-3.168.8-.939.512-1.696 1.248-2.272 2.208-.555.939-.875 2.005-.96 3.2h12.8c-.064-1.195-.384-2.261-.96-3.2a6.258 6.258 0 00-2.272-2.208c-.939-.533-1.995-.8-3.168-.8zm21.078-1.408c2.09 0 3.744.608 4.96 1.824 1.216 1.216 1.824 2.965 1.824 5.248V158h-1.6v-9.632c0-1.877-.48-3.307-1.44-4.288-.939-.981-2.262-1.472-3.968-1.472-1.963 0-3.51.587-4.64 1.76-1.131 1.173-1.696 2.752-1.696 4.736V158h-1.6v-16.704h1.536v3.616a6.378 6.378 0 012.56-2.752c1.152-.661 2.506-.992 4.064-.992zm28.25-6.912V158h-1.568v-3.936c-.661 1.301-1.589 2.304-2.784 3.008-1.195.704-2.549 1.056-4.064 1.056-1.557 0-2.965-.363-4.224-1.088a7.896 7.896 0 01-2.976-3.008c-.704-1.28-1.056-2.741-1.056-4.384 0-1.643.352-3.104 1.056-4.384.725-1.301 1.717-2.304 2.976-3.008 1.259-.725 2.667-1.088 4.224-1.088 1.493 0 2.827.352 4 1.056 1.195.704 2.133 1.685 2.816 2.944v-10.912h1.6zm-8.32 22.432c1.28 0 2.421-.299 3.424-.896a6.283 6.283 0 002.4-2.496c.597-1.067.896-2.283.896-3.648 0-1.365-.299-2.581-.896-3.648a6.283 6.283 0 00-2.4-2.496c-1.003-.597-2.144-.896-3.424-.896-1.28 0-2.432.299-3.456.896-1.003.597-1.803 1.429-2.4 2.496-.576 1.067-.864 2.283-.864 3.648 0 1.365.288 2.581.864 3.648.597 1.067 1.397 1.899 2.4 2.496 1.024.597 2.176.896 3.456.896z"/>
</svg>
